<?xml version="1.0" standalone="no"?><!DOCTYPE svg PUBLIC "-//W3C//DTD SVG 1.1//EN" "http://www.w3.org/Graphics/SVG/1.1/DTD/svg11.dtd"><svg t="1698071438250" class="icon" viewBox="0 0 1024 1024" version="1.1" xmlns="http://www.w3.org/2000/svg" p-id="1509" xmlns:xlink="http://www.w3.org/1999/xlink" width="200" height="200"><path d="M1024 141.312v-12.288c0-18.432-26.624-38.912-45.056-38.912H608.256V0h-69.632L0 96.256v831.488c180.224 32.768 352.256 63.488 530.432 96.256h69.632v-96.256h352.256c18.432 0 45.056 0 57.344-12.288 12.288-18.432 12.288-45.056 12.288-69.632 2.048 0 2.048-704.512 2.048-704.512zM325.632 536.576c-26.624 12.288-51.2 12.288-83.968 12.288v129.024l-63.488-6.144V313.344c57.344 0 129.024-26.624 180.224 18.432 51.2 65.536 38.912 174.08-32.768 204.8z m659.456 360.448H602.112V129.024h385.024v768z" fill="#A33639" p-id="1510"></path><path d="M954.368 831.488v-51.2H602.112v51.2h352.256z m-301.056-133.12h301.056v45.056H653.312v-45.056z m0-161.792h301.056v45.056H653.312v-45.056z m0 83.968h301.056v45.056H653.312v-45.056z m126.976-331.776c-6.144 26.624-18.432 57.344-32.768 83.968-63.488 26.624-63.488 45.056-63.488 51.2 0 6.144 6.144 12.288 12.288 18.432h12.288c18.432 0 38.912-18.432 57.344-57.344 26.624-12.288 51.2-18.432 77.824-26.624 12.288 12.288 32.768 18.432 51.2 18.432 12.288 0 32.768 0 32.768-26.624 0-6.144-6.144-26.624-32.768-26.624-12.288 0-24.576 0-38.912 6.144-18.432-12.288-32.768-32.768-38.912-51.2 12.288-38.912 12.288-63.488 6.144-69.632-4.096-4.096-10.24-4.096-16.384-4.096-6.144 0-18.432 6.144-18.432 12.288-32.768 20.48-14.336 57.344-8.192 71.68z m-75.776 133.12c6.144-6.144 12.288-12.288 26.624-18.432-8.192 6.144-20.48 12.288-26.624 18.432z m178.176-69.632c12.288 0 18.432 6.144 18.432 6.144h-12.288c-6.144 0-12.288 0-18.432-6.144h12.288z m-69.632-6.144c-12.288 6.144-26.624 6.144-38.912 12.288 6.144-12.288 12.288-26.624 18.432-45.056 8.192 12.288 14.336 26.624 20.48 32.768z m-26.624-122.88s8.192 0 0 0c6.144 12.288 6.144 26.624 6.144 32.768-6.144-12.288-6.144-18.432-6.144-32.768z m-542.72 153.6V491.52c18.432 0 51.2 0 63.488-26.624 12.288-26.624 12.288-51.2 0-77.824-12.288-16.384-38.912-10.24-63.488-10.24z" fill="#A33639" p-id="1511"></path></svg>