<svg width="710" height="510" xmlns="http://www.w3.org/2000/svg">
  <defs>
    <!-- Pocket Color -->
    <linearGradient id="blueGradient" x1="0%" y1="50%" x2="100%" y2="50%">
      <stop offset="0%" style="stop-color:#4088E6; stop-opacity:1" />
      <stop offset="100%" style="stop-color:#18BDF3; stop-opacity:1" />
    </linearGradient>
  </defs>

  <defs>
    <!-- Keypoints Color -->
    <radialGradient id="keypointColor" cx="100%" cy="100%" r="90%" fx="85%" fy="85%">
      <stop offset="0%" style="stop-color:red; stop-opacity:1" />
      <stop offset="100%" style="stop-color:maroon; stop-opacity:1" />
    </radialGradient>
  </defs>

  <!-- Pocket -->
  <g transform="scale(1.4) translate(130,0)">
  <rect x="65" y="35" width="120" height="5" fill="#333" transform="rotate(35 100 100), skewX(-15)" />
  <rect x="145" y="35" width="20" height="5" fill="#333" transform="rotate(35 100 100), skewX(35)" />
  <rect x="65" y="55" width="130" height="30" fill="url(#blueGradient)" transform="rotate(35 100 100), skewX(-15)" />
  <rect x="65" y="100" width="145" height="5" fill="#333" transform="rotate(35 100 100), skewX(-15)" />

  <rect x="35" y="115" width="5" height="20" fill="#333" transform="rotate(0 100 100), skewY(-45)" />
  <rect x="35" y="65" width="5" height="125" fill="#333" transform="rotate(0 100 100), skewY(35)" />
  <rect x="55" y="50" width="30" height="135" fill="url(#blueGradient)" transform="rotate(0 100 100), skewY(35)" />
  <rect x="100" y="35" width="5" height="145" fill="#333" transform="rotate(0 100 100), skewY(35)" />

  <!-- Right legs is behind the bottom side of the pocket -->
  <line x1="130" y1="160" x2="140" y2="195" stroke="maroon" stroke-width="5" /> <!-- Right Upper Leg -->
  <line x1="140" y1="195" x2="170" y2="200" stroke="maroon" stroke-width="5" /> <!-- Right Lower Leg -->
  <line x1="135" y1="160" x2="100" y2="175" stroke="maroon" stroke-width="5" /> <!-- Left Upper Leg -->
  <circle cx="130" cy="160" r="10" fill="url(#keypointColor)" stroke="maroon" /> <!-- Pelvis -->
  <circle cx="140" cy="195" r="10" fill="url(#keypointColor)" stroke="maroon" /> <!-- Right Knee -->
  <circle cx="170" cy="200" r="10" fill="url(#keypointColor)" stroke="maroon" /> <!-- Right Foot -->

  <rect x="2" y="175" width="120" height="5" fill="#333" transform="rotate(325 100 100), skewX(15)" />
  <rect x="285" y="175" width="20" height="5" fill="#333" transform="rotate(325 100 100), skewX(-35)" />
  <rect x="195" y="195" width="110" height="30" fill="url(#blueGradient)" transform="rotate(325 100 100), skewX(-35)" />
  <rect x="195" y="235" width="110" height="5" fill="#333" transform="rotate(325 100 100), skewX(-35)" />
  <rect x="-90" y="235" width="20" height="5" fill="#333" transform="rotate(325 100 100), skewX(25)" />

  <!-- Skeleton -->
  <line x1="130" y1="120" x2="130" y2="150" stroke="maroon" stroke-width="5" /> <!-- Spine -->
  <line x1="110" y1="135" x2="150" y2="135" stroke="maroon" stroke-width="5" /> <!-- Shoulders -->
  <line x1="155" y1="135" x2="170" y2="170" stroke="maroon" stroke-width="5" /> <!-- Right Arm -->
  <line x1="105" y1="135" x2="80" y2="100" stroke="maroon" stroke-width="5" /> <!-- Left Arm -->
  <line x1="100" y1="175" x2="80" y2="215" stroke="maroon" stroke-width="5" /> <!-- Left Lower Leg -->
  <circle cx="130" cy="100" r="20" fill="url(#keypointColor)" stroke="maroon" /> <!-- Head -->
  <circle cx="155" cy="135" r="10" fill="url(#keypointColor)" stroke="maroon" /> <!-- Right Elbow -->
  <circle cx="170" cy="170" r="10" fill="url(#keypointColor)" stroke="maroon" /> <!-- Right Hand -->
  <circle cx="105" cy="135" r="10" fill="url(#keypointColor)" stroke="maroon" /> <!-- Left Elbow -->
  <circle cx="80" cy="100" r="10" fill="url(#keypointColor)" stroke="maroon" /> <!-- Left Hand -->
  <circle cx="100" cy="175" r="10" fill="url(#keypointColor)" stroke="maroon" /> <!-- Left Knee -->
  <circle cx="80" cy="215" r="10" fill="url(#keypointColor)" stroke="maroon" /> <!-- Left Foot -->
  </g>

  <!-- Name -->
  <style>
    @font-face {
      font-family: 'Hind Siliguri';
      src: url('../docs/website/assets/fonts/RobotoCondensed-VariableFont_wght.ttf') format('trueType');
    }
    .brand-name {
      font-family: 'Hind Siliguri', Helvetica, sans-serif;
      font-size: 150px;
      font-weight: 500;
      fill: #333;
    }
    .brand-name-tail {
      font-family: 'Hind Siliguri', Helvetica, sans-serif;
      font-size: 150px;
      font-weight: 500;
      fill: #4088E6;
    }
  </style>

  <!-- Add text to the SVG -->
  <text x="0" y="500" class="brand-name">Pocket<tspan class="brand-name-tail">Pose</tspan></text>
</svg>
