<svg id="Icons" xmlns="http://www.w3.org/2000/svg" width="64" height="64" viewBox="0 0 64 64"><defs><style>.cls-1{fill:#62d84e;}.cls-2{fill:none;}</style></defs><path d="M57.57,21l-8.49-2.41a7.19,7.19,0,0,0-4.82-4.51L20.89,6.75a8.31,8.31,0,0,0-3.76-3,7,7,0,0,0-2-.46C10.13,2.8,5.14,7.6,3,14.91A22,22,0,0,0,2.46,25.8c.88,3.8,2.88,6.49,5.65,7.58a7.53,7.53,0,0,0,2,.46l.64,0A8.84,8.84,0,0,0,16,32l18,2.55v7.07L22.48,53a1.5,1.5,0,0,0,0,2.12,1.53,1.53,0,0,0,1.07.44,1.48,1.48,0,0,0,1.05-.43L34,45.83V60.5a1.5,1.5,0,0,0,3,0V46.09l9.5,9.09a1.5,1.5,0,0,0,2.12,0,1.5,1.5,0,0,0,0-2.12L37,41.94V35l2.16.31a6.77,6.77,0,0,0,1.41.16,8.18,8.18,0,0,0,6.08-3.15l7.9,1.2a3.63,3.63,0,0,0,.87.1,4.46,4.46,0,0,0,2.3-.67,7.11,7.11,0,0,0,3.07-4.5C61.64,24.94,60.2,21.7,57.57,21ZM10.35,30.85a4.41,4.41,0,0,1-1.14-.27C7.39,29.87,6,27.93,5.39,25.13a18.87,18.87,0,0,1,.47-9.37c1.63-5.54,5.31-9.55,8.68-9.55l.36,0A4.1,4.1,0,0,1,16,6.49c3.82,1.5,5.32,8.15,3.35,14.83C17.7,27.05,13.81,31.14,10.35,30.85Zm29.44,1.49-21.14-3a21.19,21.19,0,0,0,3.61-7.17,21.28,21.28,0,0,0,.35-11.73L43.41,17l.09,0c2.68.65,4.09,4.71,3.08,8.86S42.44,33,39.79,32.34Zm18.09-4.63a4.29,4.29,0,0,1-1.71,2.64,1.27,1.27,0,0,1-1,.21l-.14,0-6.62-1A14.51,14.51,0,0,0,49.86,22l6.93,2C57.69,24.16,58.34,25.82,57.88,27.71Z"/><ellipse class="cls-1" cx="12.37" cy="18.43" rx="8" ry="3.57" transform="translate(-9.03 24.34) rotate(-71.56)"/><rect class="cls-2" width="64" height="64"/></svg>