<svg id="Icons" xmlns="http://www.w3.org/2000/svg" width="76" height="76" viewBox="-12 0 76 76"><defs><style>.cls-1{fill:#62d84e;}.cls-2{fill:none;}</style></defs><circle class="cls-1" cx="26.5" cy="15.5" r="2.5"/><circle class="cls-1" cx="36.5" cy="15.5" r="2.5"/><path d="M62.56,41.31l-4.77-4.72A5.52,5.52,0,0,0,53.9,35H49V26h.91a5.52,5.52,0,0,0,3.88-1.59l4.76-4.72a1.5,1.5,0,1,0-2.1-2.13l-4.77,4.71a2.51,2.51,0,0,1-1.77.73H47V20.5a15.5,15.5,0,0,0-31,0V23H13.09a2.51,2.51,0,0,1-1.77-.73L6.55,17.56a1.5,1.5,0,1,0-2.1,2.13l4.76,4.72A5.52,5.52,0,0,0,13.09,26H14v9H9.1a5.56,5.56,0,0,0-3.9,1.59L.44,41.31a1.52,1.52,0,0,0,0,2.13,1.53,1.53,0,0,0,1.07.44,1.52,1.52,0,0,0,1.06-.43l4.75-4.72A2.61,2.61,0,0,1,9.1,38H14v2.5a17.37,17.37,0,0,0,1.31,6.62H13.1a5.56,5.56,0,0,0-3.9,1.59L4.44,53.43a1.51,1.51,0,0,0,2.12,2.14l4.75-4.72a2.61,2.61,0,0,1,1.79-.73h3.8a17.47,17.47,0,0,0,29.2,0h3.8a2.57,2.57,0,0,1,1.78.73l4.76,4.72A1.52,1.52,0,0,0,57.5,56a1.5,1.5,0,0,0,1.06-2.57l-4.77-4.72a5.52,5.52,0,0,0-3.89-1.59H47.69A17.37,17.37,0,0,0,49,40.5V38h4.9a2.57,2.57,0,0,1,1.78.73l4.76,4.72a1.52,1.52,0,0,0,1.06.43,1.5,1.5,0,0,0,1.06-2.57ZM19,20.5a12.5,12.5,0,0,1,25,0V23H19ZM33,54.92V34.5a1.5,1.5,0,0,0-3,0V54.92A14.52,14.52,0,0,1,17,40.5V26H46V40.5A14.52,14.52,0,0,1,33,54.92Z"/><rect class="cls-2" width="64" height="64"/></svg>