<svg id="Icons" xmlns="http://www.w3.org/2000/svg" width="64" height="64" viewBox="0 0 64 64"><defs><style>.cls-1{fill:#62d84e;}.cls-2{fill:none;}</style></defs><path class="cls-1" d="M31.5,11.9A1.5,1.5,0,0,1,30,10.4v-6a1.5,1.5,0,1,1,3,0v6A1.5,1.5,0,0,1,31.5,11.9Z"/><path class="cls-1" d="M46.76,18.64a1.53,1.53,0,0,1-1.06-.44,1.51,1.51,0,0,1,0-2.12L50,11.83A1.5,1.5,0,1,1,52.07,14L47.82,18.2A1.49,1.49,0,0,1,46.76,18.64Z"/><path class="cls-1" d="M16.24,18.64a1.49,1.49,0,0,1-1.06-.44L10.93,14a1.5,1.5,0,0,1,2.12-2.12l4.25,4.25a1.51,1.51,0,0,1,0,2.12A1.53,1.53,0,0,1,16.24,18.64Z"/><path d="M39.3,20.07c-5.2-3-11.42-2.74-17,.62a10.32,10.32,0,0,0-3.53,3.45C15,30.15,14.42,39.22,22,45a2.74,2.74,0,0,1,1,2.21v1.68a4.16,4.16,0,0,0,1.36,3.06A5.48,5.48,0,0,0,28.5,61h6a5.48,5.48,0,0,0,4.14-9.1A4.16,4.16,0,0,0,40,48.84v-1.9a2.34,2.34,0,0,1,.89-1.89A14.8,14.8,0,0,0,47,33.11,15.08,15.08,0,0,0,39.3,20.07ZM34.5,58h-6a2.5,2.5,0,0,1,0-5h6a2.5,2.5,0,0,1,0,5Zm4.6-15.36a5.38,5.38,0,0,0-2.1,4.3v1.9A1.16,1.16,0,0,1,35.83,50H27.17A1.16,1.16,0,0,1,26,48.84V47.16a5.78,5.78,0,0,0-2.21-4.6c-4.39-3.33-6.87-9.83-2.52-16.83a7.41,7.41,0,0,1,2.51-2.47A15.15,15.15,0,0,1,31.52,21a12.66,12.66,0,0,1,6.3,1.66A12.1,12.1,0,0,1,44,33.11,11.82,11.82,0,0,1,39.1,42.64Z"/><rect class="cls-2" width="64" height="64"/></svg>