<svg id="Icons" xmlns="http://www.w3.org/2000/svg" width="76" height="76" viewBox="-12 0 76 76"><defs><style>.cls-1{fill:#62d84e;}.cls-2{fill:none;}</style></defs><path class="cls-1" d="M20.5,35A6.51,6.51,0,0,1,14,28.5v-4a6.5,6.5,0,0,1,13,0v4A6.51,6.51,0,0,1,20.5,35Zm0-14A3.51,3.51,0,0,0,17,24.5v4a3.5,3.5,0,0,0,7,0v-4A3.51,3.51,0,0,0,20.5,21Zm24,14A6.51,6.51,0,0,1,38,28.5v-4a6.5,6.5,0,0,1,13,0v4A6.51,6.51,0,0,1,44.5,35Zm0-14A3.51,3.51,0,0,0,41,24.5v4a3.5,3.5,0,0,0,7,0v-4A3.51,3.51,0,0,0,44.5,21ZM35,33.5v-14a1.5,1.5,0,0,0-2.27-1.28l-3.32,2A1.5,1.5,0,0,0,31,22.79L32,22.16V33.5a1.5,1.5,0,0,0,3,0Z"/><path d="M36.5,2A24.49,24.49,0,0,0,16.1,40.05L3.81,52.33A6.25,6.25,0,0,0,8.24,63a6.34,6.34,0,0,0,4.44-1.82l12.79-12.8A24.5,24.5,0,1,0,36.5,2ZM10.56,59a3.42,3.42,0,0,1-4.61,0,3.28,3.28,0,0,1,0-4.6l12-12a24.91,24.91,0,0,0,4.87,4.35ZM36.5,48A21.5,21.5,0,1,1,58,26.5,21.52,21.52,0,0,1,36.5,48Z"/><rect class="cls-2" width="64" height="64"/></svg>