<svg id="Icons" xmlns="http://www.w3.org/2000/svg" width="76" height="76" viewBox="-12 0 76 76"><defs><style>.cls-1{fill:#62d84e;}.cls-2{fill:none;}</style></defs><circle class="cls-1" cx="22.5" cy="31.5" r="3.5"/><circle class="cls-1" cx="42.5" cy="31.5" r="3.5"/><circle class="cls-1" cx="32.5" cy="31.5" r="3.5"/><path d="M23.49,48.77a19.29,19.29,0,0,0,9,2.23A19.5,19.5,0,1,0,13,31.5a19.29,19.29,0,0,0,2.23,9L2.69,53a5.91,5.91,0,0,0,0,8.26,5.87,5.87,0,0,0,8.26,0L22.28,50ZM32.5,15A16.5,16.5,0,1,1,16,31.5,16.52,16.52,0,0,1,32.5,15ZM8.84,59.18a3,3,0,0,1-4,0,2.88,2.88,0,0,1,0-4l12.05-12a19.64,19.64,0,0,0,4,4l-.73.73ZM60,9.5v44A5.51,5.51,0,0,1,54.5,59H23.12a1.5,1.5,0,0,1,0-3H54.5A2.5,2.5,0,0,0,57,53.5V9.5A2.5,2.5,0,0,0,54.5,7h-44A2.5,2.5,0,0,0,8,9.5V40.88a1.5,1.5,0,0,1-3,0V9.5A5.51,5.51,0,0,1,10.5,4h44A5.51,5.51,0,0,1,60,9.5Z"/><rect class="cls-2" width="64" height="64"/></svg>