<?xml version="1.0" encoding="utf-8"?>
<svg viewBox="-10 0 64 64" width="64" height="64" xmlns="http://www.w3.org/2000/svg">
  <defs>
    <style>.cls-1{fill:#62d84e;}.cls-2{fill:#fff;}.cls-3{fill:none;}</style>
  </defs>
  <path d="M 38.668 29.618 L 36.204 27.252 C 35.501 26.59 34.553 26.218 33.568 26.216 L 31.88 26.216 L 31.88 23.34 C 32.731 23.257 33.526 22.895 34.129 22.316 L 36.565 19.938 C 37.546 19.155 37.277 17.645 36.08 17.222 C 35.525 17.023 34.903 17.127 34.446 17.49 C 34.372 17.546 34.304 17.612 34.244 17.682 L 31.751 20.049 C 31.668 20.129 31.554 20.174 31.436 20.173 L 30.773 20.173 L 30.773 19.743 C 30.773 13.111 23.289 8.966 17.306 12.282 C 14.528 13.822 12.817 16.665 12.817 19.743 L 12.817 20.173 L 12.155 20.173 C 12.034 20.174 11.922 20.129 11.838 20.049 L 9.344 17.682 C 9.031 17.393 8.612 17.229 8.176 17.226 C 7.736 17.223 7.314 17.393 7.009 17.698 C 6.37 18.312 6.37 19.309 7.009 19.924 L 9.502 22.289 C 10.107 22.868 10.9 23.23 11.75 23.313 L 11.75 26.188 L 10.064 26.188 C 9.056 26.185 8.088 26.574 7.385 27.267 L 4.921 29.618 C 4.618 29.919 4.448 30.321 4.445 30.739 C 4.431 31.16 4.604 31.566 4.921 31.859 C 5.575 32.452 6.599 32.452 7.253 31.859 L 9.733 29.494 C 9.819 29.409 9.938 29.358 10.064 29.356 L 11.708 29.356 L 11.708 29.784 C 11.719 30.664 11.854 31.539 12.11 32.385 C 11.137 32.386 10.204 32.759 9.517 33.421 L 7.024 35.801 C 6.392 36.419 6.392 37.407 7.024 38.028 C 7.679 38.621 8.703 38.621 9.358 38.028 L 11.838 35.662 C 11.926 35.58 12.045 35.534 12.168 35.538 L 13.711 35.538 C 17.03 39.828 23.344 40.727 27.818 37.543 C 28.61 36.974 29.316 36.301 29.908 35.538 L 31.449 35.538 C 31.567 35.537 31.682 35.581 31.767 35.662 L 34.244 37.917 C 34.899 38.51 35.925 38.51 36.579 37.917 C 37.214 37.293 37.214 36.298 36.579 35.676 L 34.086 33.298 C 33.393 32.646 32.462 32.279 31.491 32.274 C 31.735 31.474 31.867 30.646 31.88 29.812 L 31.88 29.384 L 33.582 29.384 C 33.7 29.383 33.815 29.427 33.899 29.508 L 36.391 31.886 C 37.047 32.479 38.071 32.479 38.726 31.886 C 39.042 31.593 39.215 31.187 39.202 30.765 C 39.192 30.33 39 29.917 38.668 29.618 Z M 23.436 36.077 L 23.436 26.852 C 23.436 25.639 22.068 24.879 20.973 25.487 C 20.465 25.768 20.152 26.29 20.152 26.852 L 20.152 36.132 C 17.155 35.418 15.054 32.83 15.064 29.868 L 15.064 23.353 L 28.524 23.353 L 28.524 29.812 C 28.534 32.776 26.435 35.363 23.436 36.077 Z M 21.795 14.31 C 24.91 14.353 27.426 16.767 27.471 19.758 L 27.471 20.186 L 16.117 20.186 L 16.117 19.758 C 16.162 16.767 18.678 14.353 21.795 14.31 Z" style=""/>
  <path d="M 21.866 62.285 C 21.628 62.289 21.391 62.239 21.175 62.146 C 15.115 59.452 9.554 55.822 4.718 51.401 C 1.101 48.085 -2.098 44.372 -4.808 40.337 C -5.441 39.397 -5.771 38.302 -5.758 37.183 L -5.758 11.999 C -5.756 11.356 -5.345 10.781 -4.72 10.547 L 21.218 1.197 C 21.589 1.059 21.999 1.059 22.371 1.197 L 48.309 10.547 C 48.932 10.781 49.345 11.356 49.346 11.999 L 49.346 37.363 C 49.358 38.498 49.017 39.61 48.366 40.558 C 45.63 44.499 42.445 48.136 38.871 51.401 C 34.057 55.784 28.551 59.411 22.558 62.146 C 22.34 62.239 22.105 62.289 21.866 62.285 Z M -2.53 13.023 L -2.53 37.252 C -2.516 37.743 -2.367 38.22 -2.098 38.636 C 0.495 42.435 3.532 45.938 6.952 49.076 C 11.327 53.112 16.335 56.463 21.795 59.007 C 27.238 56.461 32.243 53.13 36.636 49.133 C 40.042 46.035 43.073 42.579 45.672 38.829 C 45.971 38.394 46.126 37.884 46.118 37.363 L 46.118 13.023 L 21.795 4.31 L -2.53 13.023 Z" style=""/>
</svg>