<svg id="Icons" xmlns="http://www.w3.org/2000/svg" width="76" height="76" viewBox="-8 0 72 72"><defs><style>.cls-1{fill:#62d84e;}.cls-2{fill:none;}</style></defs><path class="cls-1" d="M9.52,15.48v7.45H54.41V15.48Zm15.86,5.59a1.87,1.87,0,1,1,1.86-1.88v0A1.88,1.88,0,0,1,25.38,21.07Zm6.62,0a1.87,1.87,0,1,1,1.86-1.88v0A1.86,1.86,0,0,1,32,21.07Zm6.62,0a1.87,1.87,0,1,1,1.87-1.87h0a1.86,1.86,0,0,1-1.86,1.86Z"/><path d="M47.66,41.88l-.4-.19.31-.31a5.21,5.21,0,0,0,1.59-3.76,5.28,5.28,0,1,0-9,3.76l.32.31-.41.19a8.91,8.91,0,0,0-1,.57,8.26,8.26,0,0,0-3.32-2.82l-.41-.19.32-.31A5.28,5.28,0,1,0,28.19,39l.09.09.32.31-.41.19a8.15,8.15,0,0,0-3.31,2.82,8.91,8.91,0,0,0-1-.57l-.4-.19.32-.31a5.28,5.28,0,1,0-7.47-.09l.09.09.31.31-.4.19a7.75,7.75,0,0,0-4.6,7v.58a.93.93,0,0,0,1.86,0v-.58c0-3.27,2.92-5.94,6.52-5.94s6.52,2.67,6.52,5.94v.58a.93.93,0,0,0,1.86,0v-.58a7.43,7.43,0,0,0-2.15-5.19,6.81,6.81,0,0,1,11.3,0,7.43,7.43,0,0,0-2.15,5.19v.58a.93.93,0,0,0,1.86,0v-.58c0-3.27,2.93-5.94,6.52-5.94s6.52,2.67,6.52,5.94v.58a.93.93,0,0,0,1.86,0v-.58A7.75,7.75,0,0,0,47.66,41.88ZM20.12,41a3.42,3.42,0,1,1,3.41-3.43h0A3.43,3.43,0,0,1,20.12,41ZM32,38.78a3.42,3.42,0,1,1,3.41-3.43h0A3.43,3.43,0,0,1,32,38.78ZM43.88,41a3.42,3.42,0,1,1,3.42-3.42h0A3.42,3.42,0,0,1,43.88,41Z"/><path d="M50.53,13.65H13.47a5.4,5.4,0,0,0-5.4,5.4V40.49a5.42,5.42,0,0,0,5.36,5.4A1.59,1.59,0,0,1,13.91,44h-.44a3.56,3.56,0,0,1-3.54-3.54V19.05a3.56,3.56,0,0,1,3.54-3.54H50.53a3.56,3.56,0,0,1,3.54,3.54V40.49A3.55,3.55,0,0,1,50.53,44h-.35a1.59,1.59,0,0,1,.6,1.25,1.53,1.53,0,0,1-.12.6,5.39,5.39,0,0,0,5.27-5.39V19.05a5.4,5.4,0,0,0-5.4-5.4Z"/><rect class="cls-2" width="64" height="64"/></svg>