<svg id="Icons" xmlns="http://www.w3.org/2000/svg" width="64" height="64" viewBox="0 0 64 64"><defs><style>.cls-1{fill:#62d84e;}.cls-2{fill:none;}</style></defs><path d="M41.5,2H9.5A1.5,1.5,0,0,0,8,3.5v56A1.5,1.5,0,0,0,9.5,61h44A1.5,1.5,0,0,0,55,59.5v-44A13.52,13.52,0,0,0,41.5,2ZM51.88,14H43V5.12A10.5,10.5,0,0,1,51.88,14ZM11,58V5H40V15.5A1.5,1.5,0,0,0,41.5,17H52V58Z"/><path d="M43.5,28h-24a1.5,1.5,0,0,0,0,3h24a1.5,1.5,0,0,0,0-3Z"/><path d="M19.5,39h20a1.5,1.5,0,0,0,0-3h-20a1.5,1.5,0,0,0,0,3Z"/><path d="M43.5,44h-24a1.5,1.5,0,0,0,0,3h24a1.5,1.5,0,0,0,0-3Z"/><rect class="cls-1" x="18" y="12" width="15" height="11" rx="1.5"/><rect class="cls-2" width="64" height="64"/></svg>