<svg id="Icons" xmlns="http://www.w3.org/2000/svg" width="64" height="64" viewBox="0 0 64 64"><defs><style>.cls-1{fill:#62d84e;}.cls-2{fill:#fff;}.cls-3{fill:none;}</style></defs><path d="M57.5,6H5.5A5.51,5.51,0,0,0,0,11.5v32A5.51,5.51,0,0,0,5.5,49H24v2.5A6.51,6.51,0,0,1,17.5,58a1.5,1.5,0,0,0,0,3h28a1.5,1.5,0,0,0,0-3A6.51,6.51,0,0,1,39,51.5V49H57.5A5.51,5.51,0,0,0,63,43.5v-32A5.51,5.51,0,0,0,57.5,6ZM38.58,58H24.42A9.46,9.46,0,0,0,27,51.5V49h9v2.5A9.46,9.46,0,0,0,38.58,58ZM60,43.5A2.5,2.5,0,0,1,57.5,46H5.5A2.5,2.5,0,0,1,3,43.5v-32A2.5,2.5,0,0,1,5.5,9h52A2.5,2.5,0,0,1,60,11.5Z"/><circle class="cls-1" cx="31.5" cy="27.5" r="13.5"/><path class="cls-2" d="M28,23.09v8.78a1,1,0,0,0,1.52.83l7-4.46a1,1,0,0,0,0-1.68l-7-4.31A1,1,0,0,0,28,23.09Z"/><rect class="cls-3" width="64" height="64"/></svg>