<svg id="Icons" xmlns="http://www.w3.org/2000/svg" width="64" height="64" viewBox="-12 0 76 70"><defs><style>.cls-1{fill:#62d84e;}.cls-2,.cls-3{fill:none;}.cls-2{stroke:#000;stroke-linecap:round;stroke-miterlimit:10;stroke-width:3px;}</style></defs><path class="cls-1" d="M46.34,45.23C44,48.9,38.22,51.5,31.5,51.5S19,48.9,16.66,45.23a5.38,5.38,0,0,0,2.84-4.64,5.16,5.16,0,0,0-1.94-4c2.74-3,8-5.09,13.94-5.09s11.2,2,13.94,5.09a5.16,5.16,0,0,0-1.94,4A5.38,5.38,0,0,0,46.34,45.23Z"/><path class="cls-2" d="M41.5,29.5a10,10,0,0,0-20,0"/><circle class="cls-2" cx="31.5" cy="13.5" r="6"/><path class="cls-2" d="M39.5,57.5a10,10,0,0,1,20,0"/><circle class="cls-2" cx="49.5" cy="41.5" r="6"/><path class="cls-2" d="M3.5,57.5a10,10,0,0,1,20,0"/><circle class="cls-2" cx="13.5" cy="41.5" r="6"/><rect class="cls-3" width="64" height="64"/></svg>