<svg id="Icons" xmlns="http://www.w3.org/2000/svg" width="64" height="64" viewBox="0 0 64 64"><defs><style>.cls-1{fill:#62d84e;}.cls-2{fill:none;}</style></defs><path class="cls-1" d="M61.68,48c0,2.2-4.56,4-10.18,4s-10.18-1.78-10.18-4c0-1.72,2.76-3.18,6.64-3.74v2H55v-2C58.92,44.84,61.68,46.3,61.68,48Z"/><path class="cls-1" d="M43,54.5C43,57,37.85,59,31.5,59S20,57,20,54.5c0-1.94,3.12-3.59,7.5-4.22V52.5h8V50.28C39.88,50.91,43,52.56,43,54.5Z"/><path class="cls-1" d="M21.68,48c0,2.2-4.56,4-10.18,4S1.32,50.22,1.32,48c0-1.72,2.76-3.18,6.64-3.74v2H15v-2C18.92,44.84,21.68,46.3,21.68,48Z"/><path d="M36.52,26.05a7.5,7.5,0,1,0-10,0A10.34,10.34,0,0,0,20,35.36V40.5a1.5,1.5,0,0,0,3,0V35.36C23,31.3,26.81,28,31.5,28S40,31.3,40,35.36V40.5a1.5,1.5,0,0,0,3,0V35.36A10.34,10.34,0,0,0,36.52,26.05ZM27,20.5A4.5,4.5,0,1,1,31.5,25,4.51,4.51,0,0,1,27,20.5Zm10,16v16A1.5,1.5,0,0,1,35.5,54h-8A1.5,1.5,0,0,1,26,52.5v-16a1.5,1.5,0,0,1,3,0V51h5V36.5a1.5,1.5,0,0,1,3,0ZM56.52,20.05a7.5,7.5,0,1,0-10,0,11.11,11.11,0,0,0-4.69,3.76,1.5,1.5,0,0,0,2.45,1.73A8.78,8.78,0,0,1,51.5,22c4.69,0,8.5,3.3,8.5,7.36V34.5a1.5,1.5,0,0,0,3,0V29.36A10.34,10.34,0,0,0,56.52,20.05ZM47,14.5A4.5,4.5,0,1,1,51.5,19,4.51,4.51,0,0,1,47,14.5Zm10,16v16A1.5,1.5,0,0,1,55.5,48h-8A1.5,1.5,0,0,1,46,46.5v-16a1.5,1.5,0,0,1,3,0V45h5V30.5a1.5,1.5,0,0,1,3,0Zm-36-7a11.16,11.16,0,0,0-4.46-3.44,7.51,7.51,0,1,0-10,0A10.34,10.34,0,0,0,0,29.36V34.5a1.5,1.5,0,0,0,3,0V29.36C3,25.3,6.81,22,11.5,22a8.89,8.89,0,0,1,7.1,3.32A1.5,1.5,0,0,0,21,23.5Zm-14-9A4.5,4.5,0,1,1,11.5,19,4.51,4.51,0,0,1,7,14.5Zm10,16v16A1.5,1.5,0,0,1,15.5,48h-8A1.5,1.5,0,0,1,6,46.5v-16a1.5,1.5,0,0,1,3,0V45h5V30.5a1.5,1.5,0,0,1,3,0Z"/><rect class="cls-2" width="64" height="64"/></svg>