<?xml version="1.0" encoding="UTF-8" standalone="no"?>
<svg
   id="Icons"
   width="64"
   height="64"
   viewBox="0 0 64 64"
   version="1.1"
   xmlns="http://www.w3.org/2000/svg"
   xmlns:svg="http://www.w3.org/2000/svg">
  <defs
     id="defs4">
    <style
       id="style2">.cls-1{fill:#62d84e;}.cls-2{fill:none;}</style>
  </defs>
  <path
     class="cls-1"
     d="M10,4V16H60V4Zm7,9a3,3,0,1,1,3-3A3,3,0,0,1,17,13Zm8,0a3,3,0,1,1,3-3A3,3,0,0,1,25,13Zm8,0a3,3,0,1,1,3-3A3,3,0,0,1,33,13Z"
     id="path6" />
  <path
     d="m 58.5,1 h -46 C 10.017,1.0054995 8.0054995,3.0170001 8,5.5 v 25 c 0,1.999999 3,1.999999 3,0 V 5.5 C 11,4.6715729 11.671573,4 12.5,4 h 46 C 59.328427,4 60,4.6715729 60,5.5 v 36 c 0,0.828427 -0.671573,1.5 -1.5,1.5 h -32 c -1.999999,0 -1.999999,3 0,3 h 32 c 2.483,-0.0055 4.494501,-2.017 4.5,-4.5 V 5.5 C 62.994501,3.0170001 60.983,1.0054995 58.5,1 Z M 27,61.58 v 0.92 c 0,1.999999 -3,1.999999 -3,0 V 61.58 C 24,56.3 19.29,52 13.5,52 7.71,52 3,56.3 3,61.58 v 0.92 c 0,1.999999 -3,1.999999 -3,0 V 61.58 C 0.07254654,56.71513 2.9701458,52.33749 7.42,50.37 L 8.06,50.06 7.55,49.56 C 2.1122988,44.229987 5.8866733,34.990239 13.5,34.990239 c 7.613327,0 11.387701,9.239748 5.95,14.569761 l -0.51,0.5 0.64,0.31 c 4.449854,1.96749 7.347453,6.34513 7.42,11.21 z M 19,43.5 C 19,38.599683 13.075738,36.146483 9.6111103,39.61111 6.1464826,43.075738 8.5996825,49 13.5,49 16.535283,48.9945 18.994496,46.535283 19,43.5 Z"
     id="path8" />
  <rect
     class="cls-2"
     width="64"
     height="64"
     id="rect10" />
  <path
     d="m 18.44,21.94 c 0.585635,-0.584907 1.534365,-0.584907 2.12,0 l 6,6 c 0.590481,0.583317 0.590481,1.536683 0,2.12 l -6,6 c -0.585635,0.584907 -1.534365,0.584907 -2.12,0 -0.590481,-0.583317 -0.590481,-1.536683 0,-2.12 L 23.38,29 18.44,24.06 c -0.590481,-0.583317 -0.590481,-1.536683 0,-2.12 z"
     id="path342" />
</svg>
