<svg id="Icons" xmlns="http://www.w3.org/2000/svg" width="64" height="64" viewBox="0 0 64 64"><defs><style>.cls-1{fill:#62d84e;}.cls-2{fill:none;}</style></defs><path class="cls-1" d="M10,4V16H60V4Zm7,9a3,3,0,1,1,3-3A3,3,0,0,1,17,13Zm8,0a3,3,0,1,1,3-3A3,3,0,0,1,25,13Zm8,0a3,3,0,1,1,3-3A3,3,0,0,1,33,13Z"/><path d="M44.44,33.94,49.38,29l-4.94-4.94a1.5,1.5,0,1,1,2.12-2.12l6,6a1.49,1.49,0,0,1,0,2.12l-6,6a1.5,1.5,0,0,1-2.12,0A1.49,1.49,0,0,1,44.44,33.94Zm-17.88-12a1.5,1.5,0,0,0-2.12,0l-6,6a1.49,1.49,0,0,0,0,2.12l6,6a1.5,1.5,0,0,0,2.12,0,1.49,1.49,0,0,0,0-2.12L21.62,29l4.94-4.94A1.49,1.49,0,0,0,26.56,21.94Zm4.33,17.43a1.42,1.42,0,0,0,.61.13,1.5,1.5,0,0,0,1.37-.89l8-18a1.52,1.52,0,0,0,0-1.15,1.5,1.5,0,0,0-1.4-1,1.5,1.5,0,0,0-1.37.89l-8,18a1.53,1.53,0,0,0,0,1.15A1.46,1.46,0,0,0,30.89,39.37ZM58.5,1h-46A4.51,4.51,0,0,0,8,5.5v25a1.5,1.5,0,0,0,3,0V5.5A1.5,1.5,0,0,1,12.5,4h46A1.5,1.5,0,0,1,60,5.5v36A1.5,1.5,0,0,1,58.5,43h-32a1.5,1.5,0,0,0,0,3h32A4.51,4.51,0,0,0,63,41.5V5.5A4.51,4.51,0,0,0,58.5,1ZM27,61.58v.92a1.5,1.5,0,0,1-3,0v-.92C24,56.3,19.29,52,13.5,52S3,56.3,3,61.58v.92a1.5,1.5,0,0,1-3,0v-.92A12.46,12.46,0,0,1,7.42,50.37l.64-.31-.51-.5a8.5,8.5,0,1,1,11.9,0l-.51.5.64.31A12.46,12.46,0,0,1,27,61.58ZM19,43.5A5.5,5.5,0,1,0,13.5,49,5.51,5.51,0,0,0,19,43.5Z"/><rect class="cls-2" width="64" height="64"/></svg>