<svg id="Icons" xmlns="http://www.w3.org/2000/svg" width="64" height="64" viewBox="0 0 64 64"><defs><style>.cls-1{fill:#62d84e;}.cls-2{fill:none;}</style></defs><path d="M37.5,2A23.48,23.48,0,0,0,17,37L3.37,50.59a6.39,6.39,0,0,0,9,9L26,46A23.5,23.5,0,1,0,37.5,2ZM10.29,57.51a3.48,3.48,0,0,1-4.8,0,3.4,3.4,0,0,1,0-4.8L18.67,39.54a23.63,23.63,0,0,0,4.79,4.79ZM37.5,46A20.5,20.5,0,1,1,58,25.5,20.53,20.53,0,0,1,37.5,46Z"/><path class="cls-1" d="M28.57,19.07l-5.36,5a2,2,0,0,0,0,2.94l5.36,5a13.14,13.14,0,0,0,17.86,0l5.36-5a2,2,0,0,0,0-2.94l-5.36-5A13.14,13.14,0,0,0,28.57,19.07ZM37.5,29.5a4.32,4.32,0,0,1-4.57-4,4.32,4.32,0,0,1,4.57-4,4.32,4.32,0,0,1,4.57,4A4.32,4.32,0,0,1,37.5,29.5Z"/><rect class="cls-2" width="64" height="64"/></svg>