<?xml version="1.0" encoding="UTF-8" standalone="no"?>
<svg
   id="Icons"
   width="64"
   height="64"
   viewBox="0 0 64 64"
   version="1.1"
   xmlns="http://www.w3.org/2000/svg"
   xmlns:svg="http://www.w3.org/2000/svg">
  <defs
     id="defs4">
    <style
       id="style2">.cls-1{fill:#62d84e;}.cls-2{fill:none;}</style>
  </defs>
  <g
     id="g176"
     transform="matrix(-1,0,0,1,64,0)">
    <path
       d="M 57.57,21 49.08,18.59 A 7.19,7.19 0 0 0 44.26,14.08 L 20.89,6.75 a 8.31,8.31 0 0 0 -3.76,-3 7,7 0 0 0 -2,-0.46 C 10.13,2.8 5.14,7.6 3,14.91 A 22,22 0 0 0 2.46,25.8 c 0.88,3.8 2.88,6.49 5.65,7.58 a 7.53,7.53 0 0 0 2,0.46 h 0.64 A 8.84,8.84 0 0 0 16,32 l 18,2.55 v 7.07 L 22.48,53 a 1.5,1.5 0 0 0 0,2.12 1.53,1.53 0 0 0 1.07,0.44 1.48,1.48 0 0 0 1.05,-0.43 L 34,45.83 V 60.5 a 1.5,1.5 0 0 0 3,0 V 46.09 l 9.5,9.09 a 1.5,1.5 0 0 0 2.12,0 1.5,1.5 0 0 0 0,-2.12 L 37,41.94 V 35 l 2.16,0.31 a 6.77,6.77 0 0 0 1.41,0.16 8.18,8.18 0 0 0 6.08,-3.15 l 7.9,1.2 a 3.63,3.63 0 0 0 0.87,0.1 4.46,4.46 0 0 0 2.3,-0.67 7.11,7.11 0 0 0 3.07,-4.5 C 61.64,24.94 60.2,21.7 57.57,21 Z M 10.35,30.85 A 4.41,4.41 0 0 1 9.21,30.58 C 7.39,29.87 6,27.93 5.39,25.13 A 18.87,18.87 0 0 1 5.86,15.76 C 7.49,10.22 11.17,6.21 14.54,6.21 H 14.9 A 4.1,4.1 0 0 1 16,6.49 c 3.82,1.5 5.32,8.15 3.35,14.83 -1.65,5.73 -5.54,9.82 -9,9.53 z m 29.44,1.49 -21.14,-3 a 21.19,21.19 0 0 0 3.61,-7.17 21.28,21.28 0 0 0 0.35,-11.73 L 43.41,17 h 0.09 c 2.68,0.65 4.09,4.71 3.08,8.86 -1.01,4.15 -4.14,7.14 -6.79,6.48 z m 18.09,-4.63 a 4.29,4.29 0 0 1 -1.71,2.64 1.27,1.27 0 0 1 -1,0.21 h -0.14 l -6.62,-1 A 14.51,14.51 0 0 0 49.86,22 l 6.93,2 c 0.9,0.16 1.55,1.82 1.09,3.71 z"
       id="path6" />
    <ellipse
       class="cls-1"
       cx="12.37"
       cy="18.43"
       rx="8"
       ry="3.5699999"
       transform="rotate(-71.56,12.371542,18.43481)"
       id="ellipse8" />
    <rect
       class="cls-2"
       width="64"
       height="64"
       id="rect10"
       x="0"
       y="0" />
  </g>
</svg>
