<svg id="Icons" xmlns="http://www.w3.org/2000/svg" width="64" height="64" viewBox="0 0 64 64"><defs><style>.cls-1{fill:#62d84e;}.cls-2{fill:#fff;}.cls-3{fill:none;}</style></defs><rect class="cls-1" x="26" y="17" width="27" height="13" rx="1.5"/><path d="M61.5,9h-44A1.5,1.5,0,0,0,16,10.5V23H5.5A5.51,5.51,0,0,0,0,28.5v19A9.51,9.51,0,0,0,9.5,57a9.76,9.76,0,0,0,1.44-.11,1.47,1.47,0,0,0,.56.11h44A7.5,7.5,0,0,0,63,49.5v-39A1.5,1.5,0,0,0,61.5,9ZM16,47.5a6.5,6.5,0,0,1-13,0v-19a2.5,2.5,0,0,1,5,0v17A1.5,1.5,0,0,0,9.5,47H16ZM11,44V28.5a5.4,5.4,0,0,0-.61-2.5H16V44Zm49,5.5A4.51,4.51,0,0,1,55.5,54H16.42A9.46,9.46,0,0,0,19,47.5V12H60Z"/><path d="M27.5,39h24a1.5,1.5,0,0,0,0-3h-24a1.5,1.5,0,0,0,0,3Z"/><path d="M27.5,47h20a1.5,1.5,0,0,0,0-3h-20a1.5,1.5,0,0,0,0,3Z"/><path class="cls-2" d="M31.05,27c0-4.24-.84-8.49,4.24-4.24s2.54-4.25,7.63,0L48,27Z"/><rect class="cls-3" width="64" height="64"/></svg>