<?xml version="1.0" encoding="UTF-8" standalone="no"?>
<svg
   viewBox="-10 0 64 64"
   width="64"
   height="64"
   version="1.1"
   id="svg22"
   xmlns="http://www.w3.org/2000/svg"
   xmlns:svg="http://www.w3.org/2000/svg">
  <defs
     id="defs16">
    <style
       id="style14">.cls-1{fill:#62d84e;}.cls-2{fill:#fff;}.cls-3{fill:none;}</style>
  </defs>
  <path
     d="m 38.844553,32.160372 -2.464,-2.366 c -0.703,-0.662 -1.651,-1.034 -2.636,-1.036 h -1.688 v -2.876 c 0.851,-0.083 1.646,-0.445 2.249,-1.024 l 2.436,-2.378 c 0.981,-0.783 0.712,-2.293 -0.485,-2.716 -0.555,-0.199 -1.177,-0.095 -1.634,0.268 -0.074,0.056 -0.142,0.122 -0.202,0.192 l -2.493,2.367 c -0.083,0.08 -0.197,0.125 -0.315,0.124 h -0.663 v -0.43 c 0,-6.632 -7.484,-10.777 -13.467,-7.461 -2.778,1.54 -4.489,4.383 -4.489,7.461 v 0.43 h -0.662 c -0.121,0.001 -0.233,-0.044 -0.317,-0.124 l -2.4940008,-2.367 c -0.313,-0.289 -0.732,-0.453 -1.168,-0.456 -0.44,-0.003 -0.862,0.167 -1.167,0.472 -0.639,0.614 -0.639,1.611 0,2.226 l 2.493,2.365 c 0.6050008,0.579 1.3980008,0.941 2.2480008,1.024 v 2.875 h -1.686 c -1.0080008,-0.003 -1.9760008,0.386 -2.6790008,1.079 l -2.464,2.351 c -0.303,0.301 -0.473,0.703 -0.476,1.121 -0.014,0.421 0.159,0.827 0.476,1.12 0.654,0.593 1.678,0.593 2.332,0 l 2.48,-2.365 c 0.086,-0.085 0.2050008,-0.136 0.3310008,-0.138 h 1.644 v 0.428 c 0.011,0.88 0.146,1.755 0.402,2.601 -0.973,0.001 -1.906,0.374 -2.5930008,1.036 l -2.493,2.38 c -0.632,0.618 -0.632,1.606 0,2.227 0.655,0.593 1.679,0.593 2.334,0 l 2.4800008,-2.366 c 0.088,-0.082 0.207,-0.128 0.33,-0.124 h 1.543 c 3.319,4.29 9.633,5.189 14.107,2.005 0.792,-0.569 1.498,-1.242 2.09,-2.005 h 1.541 c 0.118,-10e-4 0.233,0.043 0.318,0.124 l 2.477,2.255 c 0.655,0.593 1.681,0.593 2.335,0 0.635,-0.624 0.635,-1.619 0,-2.241 l -2.493,-2.378 c -0.693,-0.652 -1.624,-1.019 -2.595,-1.024 0.244,-0.8 0.376,-1.628 0.389,-2.462 v -0.428 h 1.702 c 0.118,-0.001 0.233,0.043 0.317,0.124 l 2.492,2.378 c 0.656,0.593 1.68,0.593 2.335,0 0.316,-0.293 0.489,-0.699 0.476,-1.121 -0.01,-0.435 -0.202,-0.848 -0.534,-1.147 z m -15.232,6.459 v -9.225 c 0,-1.213 -1.368,-1.973 -2.463,-1.365 -0.508,0.281 -0.821,0.803 -0.821,1.365 v 9.28 c -2.997,-0.714 -5.098,-3.302 -5.088,-6.264 v -6.515 h 13.46 v 6.459 c 0.01,2.964 -2.089,5.551 -5.088,6.265 z m -1.641,-21.767 c 3.115,0.043 5.631,2.457 5.676,5.448 v 0.428 h -11.354 v -0.428 c 0.045,-2.991 2.561,-5.405 5.678,-5.448 z"
     id="path18" />
  <path
     d="m 22.072032,62.285 c -0.238,0.004 -0.475,-0.046 -0.691,-0.139 -6.06,-2.694 -11.6210002,-6.324 -16.4570002,-10.745 -3.617,-3.316 -6.816,-7.029 -9.526,-11.064 -0.633,-0.94 -0.963,-2.035 -0.95,-3.154 V 11.999 c 0.002,-0.643 0.413,-1.218 1.038,-1.452 L 21.424032,1.197 c 0.371,-0.138 0.781,-0.138 1.153,0 l 25.938,9.35 c 0.623,0.234 1.036,0.809 1.037,1.452 v 25.364 c 0.012,1.135 -0.329,2.247 -0.98,3.195 -2.736,3.941 -5.921,7.578 -9.495,10.843 -4.814,4.383 -10.32,8.01 -16.313,10.745 -0.218,0.093 -0.453,0.143 -0.692,0.139 z M -2.3239682,13.023 v 24.229 c 0.014,0.491 0.163,0.968 0.432,1.384 2.59300002,3.799 5.63,7.302 9.05,10.44 4.3750002,4.036 9.3830002,7.387 14.8430002,9.931 5.443,-2.546 10.448,-5.877 14.841,-9.874 3.406,-3.098 6.437,-6.554 9.036,-10.304 0.299,-0.435 0.454,-0.945 0.446,-1.466 v -24.34 l -24.323,-8.713 z"
     id="path20" />
</svg>
